# xmcd
# Copyright (C) 1995-1998 Ti Kan
#
# Track frame offsets:
#       150
#       9328
#       22949
#       38035
#       57066
#       73327
#       84249
#       99969
#       115744
#       128748
#       144435
#       154790
#       167889
#       180958
#       195747
#       210737
#       223559
#       237690
#       251061
#       261108
#       273230
#       286066
#       297726
#       306529
#       318824
#
# Disc length: 4423 seconds
#
# Revision: 24
# Processed by: cddbd v1.5.2PL0 Copyright (c) Steve Scherf et al.
# Submitted via: CD-Import v1.0
#
DISCID=66114519
DTITLE=Critical Acid - Winterthur: Hochburg Der Gitarre (Jahrbuch1998)
DYEAR=96
DGENRE=
TTITLE0=All The Day
TTITLE1=Real Fine Woman
TTITLE2=Bluesbreaker
TTITLE3=Bellinda
TTITLE4=Dä Polizischt Müller
TTITLE5=Hey My Little Baby
TTITLE6=You Are Free
TTITLE7=Kleine Katze
TTITLE8=No Solution
TTITLE9=Chalice Your Mind
TTITLE10=Lovesong
TTITLE11=Headin' Down South
TTITLE12=I Don't Wanna Live Without You
TTITLE13=Land Of Fear
TTITLE14=Horizon
TTITLE15=Crazy
TTITLE16=All I Do Is Wait
TTITLE17=Love And Beautifull Woman
TTITLE18=How Do You Know
TTITLE19=Goin' Down
TTITLE20=Tumbler
TTITLE21=Time
TTITLE22=Lügen
TTITLE23=Non Ha Senso
TTITLE24=Let's Break Out
EXTD=
EXTT0=
EXTT1=
EXTT2=
EXTT3=
EXTT4=
EXTT5=
EXTT6=
EXTT7=
EXTT8=
EXTT9=
EXTT10=
EXTT11=
EXTT12=
EXTT13=
EXTT14=
EXTT15=
EXTT16=
EXTT17=
EXTT18=
EXTT19=
EXTT20=
EXTT21=
EXTT22=
EXTT23=
EXTT24=
PLAYORDER=
